<svg xmlns="http://www.w3.org/2000/svg" width="1200" height="820" viewBox="0 0 1200 820"><rect width="1200" height="820" fill="#ffffff"/><text x="600.0" y="46" text-anchor="middle" font-family="Montserrat,Arial,sans-serif" font-weight="800" font-size="30" fill="#111827" letter-spacing="1">YOUR SYSTEM</text><text x="600.0" y="76" text-anchor="middle" font-family="Montserrat,Arial,sans-serif" font-weight="700" font-size="16" fill="#db0063" letter-spacing="4">3 STAGES &#183; 9 STEPS</text><rect x="40.0" y="100" width="357.3333333333333" height="44" rx="9" fill="#1f1f22"/><text x="218.66666666666666" y="129" text-anchor="middle" font-family="Montserrat,Arial,sans-serif" font-weight="800" font-size="17" fill="#fff" letter-spacing="2">STAGE 1</text><rect x="40.0" y="162" width="357.3333333333333" height="192" rx="12" fill="#fafafb" stroke="#e6e7ea"/><circle cx="98.0" cy="258.0" r="34" fill="#db0063"/><g fill="none" stroke="#fff" stroke-width="2.7" stroke-linecap="round" stroke-linejoin="round"><circle cx="98.0" cy="254.0" r="10"/><path d="M94.0 267.0 h8 M95.0 271.0 h6"/><path d="M98.0 244.0 v-4"/></g><text x="148.0" y="244.0" font-family="Montserrat,Arial,sans-serif" font-weight="800" font-size="20" fill="#db0063">STEP 1</text><rect x="148.0" y="258.0" width="225.33333333333331" height="14" rx="7" fill="#c9ccd2"/><rect x="148.0" y="282.0" width="148.72" height="12" rx="6" fill="#e9ebef"/><rect x="40.0" y="370" width="357.3333333333333" height="192" rx="12" fill="#fafafb" stroke="#e6e7ea"/><circle cx="98.0" cy="466.0" r="34" fill="#db0063"/><g fill="none" stroke="#fff" stroke-width="2.7" stroke-linecap="round" stroke-linejoin="round"><circle cx="98.0" cy="466.0" r="12"/><circle cx="98.0" cy="466.0" r="6"/><circle cx="98.0" cy="466.0" r="1.4" fill="#fff"/></g><text x="148.0" y="452.0" font-family="Montserrat,Arial,sans-serif" font-weight="800" font-size="20" fill="#db0063">STEP 2</text><rect x="148.0" y="466.0" width="225.33333333333331" height="14" rx="7" fill="#c9ccd2"/><rect x="148.0" y="490.0" width="148.72" height="12" rx="6" fill="#e9ebef"/><rect x="40.0" y="578" width="357.3333333333333" height="192" rx="12" fill="#fafafb" stroke="#e6e7ea"/><circle cx="98.0" cy="674.0" r="34" fill="#db0063"/><g fill="none" stroke="#fff" stroke-width="2.7" stroke-linecap="round" stroke-linejoin="round"><path d="M89.0 661.0 v26"/><path d="M89.0 662.0 h17 l-5 6 l5 6 h-17" fill="#fff" stroke="none"/></g><text x="148.0" y="660.0" font-family="Montserrat,Arial,sans-serif" font-weight="800" font-size="20" fill="#db0063">STEP 3</text><rect x="148.0" y="674.0" width="225.33333333333331" height="14" rx="7" fill="#c9ccd2"/><rect x="148.0" y="698.0" width="148.72" height="12" rx="6" fill="#e9ebef"/><rect x="421.3333333333333" y="100" width="357.3333333333333" height="44" rx="9" fill="#1f1f22"/><text x="600.0" y="129" text-anchor="middle" font-family="Montserrat,Arial,sans-serif" font-weight="800" font-size="17" fill="#fff" letter-spacing="2">STAGE 2</text><rect x="421.3333333333333" y="162" width="357.3333333333333" height="192" rx="12" fill="#fafafb" stroke="#e6e7ea"/><circle cx="479.3333333333333" cy="258.0" r="34" fill="#db0063"/><g fill="none" stroke="#fff" stroke-width="2.7" stroke-linecap="round" stroke-linejoin="round"><rect x="466.3333333333333" y="247.0" width="26" height="18" rx="5"/><path d="M473.3333333333333 265.0 l-2 6 l8 -6" fill="#fff" stroke="none"/></g><text x="529.3333333333333" y="244.0" font-family="Montserrat,Arial,sans-serif" font-weight="800" font-size="20" fill="#db0063">STEP 4</text><rect x="529.3333333333333" y="258.0" width="225.33333333333331" height="14" rx="7" fill="#c9ccd2"/><rect x="529.3333333333333" y="282.0" width="148.72" height="12" rx="6" fill="#e9ebef"/><rect x="421.3333333333333" y="370" width="357.3333333333333" height="192" rx="12" fill="#fafafb" stroke="#e6e7ea"/><circle cx="479.3333333333333" cy="466.0" r="34" fill="#db0063"/><text x="479.3333333333333" y="475.0" text-anchor="middle" font-family="Montserrat,Arial,sans-serif" font-weight="800" font-size="30" fill="#fff">$</text><text x="529.3333333333333" y="452.0" font-family="Montserrat,Arial,sans-serif" font-weight="800" font-size="20" fill="#db0063">STEP 5</text><rect x="529.3333333333333" y="466.0" width="225.33333333333331" height="14" rx="7" fill="#c9ccd2"/><rect x="529.3333333333333" y="490.0" width="148.72" height="12" rx="6" fill="#e9ebef"/><rect x="421.3333333333333" y="578" width="357.3333333333333" height="192" rx="12" fill="#fafafb" stroke="#e6e7ea"/><circle cx="479.3333333333333" cy="674.0" r="34" fill="#db0063"/><g fill="none" stroke="#fff" stroke-width="2.7" stroke-linecap="round" stroke-linejoin="round"><line x1="479.3333333333333" y1="674.0" x2="495.3333333333333" y2="674.0"/><line x1="479.3333333333333" y1="674.0" x2="490.6470425495783" y2="685.3137077817245"/><line x1="479.3333333333333" y1="674.0" x2="479.3333353620517" y2="689.9999999999999"/><line x1="479.3333333333333" y1="674.0" x2="468.01962698612954" y2="685.3137106507653"/><line x1="479.3333333333333" y1="674.0" x2="463.3333333333338" y2="674.0000040574367"/><line x1="479.3333333333333" y1="674.0" x2="468.0196212480479" y2="662.686295087317"/><line x1="479.3333333333333" y1="674.0" x2="479.33332724717826" y2="658.0000000000011"/><line x1="479.3333333333333" y1="674.0" x2="490.6470368114952" y2="662.6862864801946"/><circle cx="479.3333333333333" cy="674.0" r="9" fill="#db0063"/><circle cx="479.3333333333333" cy="674.0" r="9"/></g><text x="529.3333333333333" y="660.0" font-family="Montserrat,Arial,sans-serif" font-weight="800" font-size="20" fill="#db0063">STEP 6</text><rect x="529.3333333333333" y="674.0" width="225.33333333333331" height="14" rx="7" fill="#c9ccd2"/><rect x="529.3333333333333" y="698.0" width="148.72" height="12" rx="6" fill="#e9ebef"/><rect x="802.6666666666666" y="100" width="357.3333333333333" height="44" rx="9" fill="#1f1f22"/><text x="981.3333333333333" y="129" text-anchor="middle" font-family="Montserrat,Arial,sans-serif" font-weight="800" font-size="17" fill="#fff" letter-spacing="2">STAGE 3</text><rect x="802.6666666666666" y="162" width="357.3333333333333" height="192" rx="12" fill="#fafafb" stroke="#e6e7ea"/><circle cx="860.6666666666666" cy="258.0" r="34" fill="#db0063"/><g fill="none" stroke="#fff" stroke-width="2.7" stroke-linecap="round" stroke-linejoin="round"><rect x="850.6666666666666" y="245.0" width="20" height="26" rx="3"/><path d="M855.6666666666666 252.0 h10 M855.6666666666666 258.0 h10 M855.6666666666666 264.0 h6"/></g><text x="910.6666666666666" y="244.0" font-family="Montserrat,Arial,sans-serif" font-weight="800" font-size="20" fill="#db0063">STEP 7</text><rect x="910.6666666666666" y="258.0" width="225.33333333333331" height="14" rx="7" fill="#c9ccd2"/><rect x="910.6666666666666" y="282.0" width="148.72" height="12" rx="6" fill="#e9ebef"/><rect x="802.6666666666666" y="370" width="357.3333333333333" height="192" rx="12" fill="#fafafb" stroke="#e6e7ea"/><circle cx="860.6666666666666" cy="466.0" r="34" fill="#db0063"/><g fill="none" stroke="#fff" stroke-width="2.7" stroke-linecap="round" stroke-linejoin="round"><circle cx="853.6666666666666" cy="460.0" r="5"/><circle cx="867.6666666666666" cy="460.0" r="5"/><path d="M845.6666666666666 477.0 a8 8 0 0 1 16 0 M859.6666666666666 477.0 a8 8 0 0 1 16 0"/></g><text x="910.6666666666666" y="452.0" font-family="Montserrat,Arial,sans-serif" font-weight="800" font-size="20" fill="#db0063">STEP 8</text><rect x="910.6666666666666" y="466.0" width="225.33333333333331" height="14" rx="7" fill="#c9ccd2"/><rect x="910.6666666666666" y="490.0" width="148.72" height="12" rx="6" fill="#e9ebef"/><rect x="802.6666666666666" y="578" width="357.3333333333333" height="192" rx="12" fill="#fafafb" stroke="#e6e7ea"/><circle cx="860.6666666666666" cy="674.0" r="34" fill="#db0063"/><g fill="none" stroke="#fff" stroke-width="2.7" stroke-linecap="round" stroke-linejoin="round"><path d="M848.6666666666666 684.0 L858.6666666666666 672.0 L863.6666666666666 677.0 L872.6666666666666 665.0"/><path d="M865.6666666666666 665.0 h7 v7" /></g><text x="910.6666666666666" y="660.0" font-family="Montserrat,Arial,sans-serif" font-weight="800" font-size="20" fill="#db0063">STEP 9</text><rect x="910.6666666666666" y="674.0" width="225.33333333333331" height="14" rx="7" fill="#c9ccd2"/><rect x="910.6666666666666" y="698.0" width="148.72" height="12" rx="6" fill="#e9ebef"/></svg>